<svg xmlns="http://www.w3.org/2000/svg" width="511" height="504" fill="none"><g stroke-width="15" clip-path="url(#a)"><path stroke="url(#b)" d="m200 105 107.5-2.5s19.5-.5 29.5 8 17 19 17 19l58.5 94s6 16.5 6 24-6 24.5-6 24.5l-53 101S349 386 344 390s-21 8-21 8l-126 3s-15.5-1.5-21.5-5.5-12-13.5-12-13.5L97 277s-5-11.5-5.5-19 5.5-23.5 5.5-23.5l54-105s6-11 14-18 35-6.5 35-6.5z"/><path stroke="url(#c)" d="M224.837 80.871a62.5 62.5 0 0 1 61.326 0l104.504 58.838a62.5 62.5 0 0 1 31.837 54.462v114.658a62.5 62.5 0 0 1-31.837 54.462l-104.504 58.838a62.502 62.502 0 0 1-61.326 0l-104.504-58.838a62.5 62.5 0 0 1-31.837-54.462V194.171a62.5 62.5 0 0 1 31.837-54.462l104.504-58.838z"/><path stroke="url(#d)" d="M169.809 101.005a62.5 62.5 0 0 1 57.893-20.23l118.064 21.074a62.501 62.501 0 0 1 48.02 40.911l37.821 108.241a62.499 62.499 0 0 1-12.09 61.915l-79.246 90.017a62.5 62.5 0 0 1-57.894 20.229l-118.063-21.073a62.498 62.498 0 0 1-48.02-40.911L78.472 252.937a62.5 62.5 0 0 1 12.09-61.915l79.247-90.017z"/><path stroke="url(#e)" d="M261.05 78.633a62.5 62.5 0 0 1 59.921 13.05l89.59 79.73a62.5 62.5 0 0 1 19.518 59.988l-24.4 112.033a62.5 62.5 0 0 1-42.697 46.439l-114.631 35.252a62.503 62.503 0 0 1-59.922-13.051l-89.59-79.729a62.5 62.5 0 0 1-19.517-59.989l24.399-112.032a62.5 62.5 0 0 1 42.697-46.439L261.05 78.633z"/></g><defs><linearGradient id="b" x1="419" x2="126" y1="102" y2="420" gradientUnits="userSpaceOnUse"><stop stop-color="#00EAFF"/><stop offset=".805" stop-color="#4B0E6B"/></linearGradient><linearGradient id="c" x1="255.5" x2="255.5" y1="55" y2="448" gradientUnits="userSpaceOnUse"><stop stop-color="#050A95"/><stop offset="1" stop-color="#00CBD9"/></linearGradient><linearGradient id="d" x1="190.222" x2="319.858" y1="66.467" y2="437.471" gradientUnits="userSpaceOnUse"><stop stop-color="#FF00BD"/><stop offset="1" stop-color="#DF00FF"/></linearGradient><linearGradient id="e" x1="85.5" x2="431.5" y1="82.5" y2="424" gradientUnits="userSpaceOnUse"><stop stop-color="#00A7D2"/><stop offset="1" stop-color="#0002AD"/></linearGradient><clipPath id="a"><path fill="#fff" d="M0 0h510.08v503.938H0z"/></clipPath></defs></svg>